<?xml version="1.0" ?><svg viewBox="0 0 64 64" xmlns="http://www.w3.org/2000/svg"><defs><style>.cls-1{fill:#d1e7ff;}.cls-2{fill:#8bc4ff;}.cls-3{fill:#2e58ff;}</style></defs><title/><g id="Save"><path class="cls-1" d="M48,14V60.53a1.47,1.47,0,0,1-2.41,1.13C28.65,47.71,29.42,48,28,48a2.73,2.73,0,0,0-1.77.64C9,62.8,10.23,62,9.47,62h0A1.47,1.47,0,0,1,8,60.53V14a4,4,0,0,1,4-4H44A4,4,0,0,1,48,14Z"/><path class="cls-2" d="M56,6V50a4,4,0,0,1-4,4H48V14a4,4,0,0,0-4-4H16V6a4,4,0,0,1,4-4H52A4,4,0,0,1,56,6Z"/><polygon class="cls-2" points="28 22 30.75 27.58 36.91 28.47 32.45 32.81 33.51 38.95 28 36.05 22.49 38.95 23.55 32.81 19.09 28.47 25.25 27.58 28 22"/><path class="cls-3" d="M52,0H20a6,6,0,0,0-6,6V8H12a6,6,0,0,0-6,6V60.53a3.48,3.48,0,0,0,5.68,2.68l15.82-13a.81.81,0,0,1,1,0l15.82,13A3.48,3.48,0,0,0,50,60.53V56h2a6,6,0,0,0,6-6V6A6,6,0,0,0,52,0ZM46,59.41,31,47.09a4.9,4.9,0,0,0-6.08,0L10,59.41V14a2,2,0,0,1,2-2H44a2,2,0,0,1,2,2ZM54,50a2,2,0,0,1-2,2H50V14a6,6,0,0,0-6-6H18V6a2,2,0,0,1,2-2H52a2,2,0,0,1,2,2Z"/><path class="cls-3" d="M37.2,26.49l-5.12-.74-2.29-4.63a2,2,0,0,0-3.58,0l-2.29,4.63-5.12.74a2,2,0,0,0-1.1,3.42l3.7,3.6-.88,5.1a2,2,0,0,0,2.9,2.11L28,38.31l4.58,2.41a2,2,0,0,0,2.9-2.11l-.88-5.1,3.7-3.6A2,2,0,0,0,37.2,26.49Zm-6.35,8.8c-3.16-1.66-2.54-1.66-5.7,0,.61-3.53.79-2.93-1.76-5.42,3.55-.52,3-.14,4.61-3.35,1.58,3.21,1.07,2.84,4.61,3.35C30.06,32.36,30.24,31.74,30.85,35.29Z"/></g></svg>